<svg id="Capa_1" enable-background="new 0 0 512 512" height="512" viewBox="0 0 512 512" width="512" xmlns="http://www.w3.org/2000/svg"><g><g><path d="m256.85 167.418-256.85 25.54v221.58c0 8.28 6.72 15 15 15h482c8.28 0 15-6.72 15-15v-221.58z" fill="#6e6e6e"/><g><path d="m256.85 167.418-72.205 7.18v254.94h312.355c8.28 0 15-6.72 15-15v-221.58z" fill="#595959"/></g><path d="m253.5 172.712h-137.714c-5.347 0-10.29-2.847-12.974-7.471-2.684-4.625-2.703-10.329-.05-14.972l34.429-60.25c2.67-4.673 7.641-7.558 13.023-7.558h68.857c5.383 0 10.353 2.885 13.023 7.558l24.755 42.688 9.673 17.562c2.653 4.643 2.634 10.347-.05 14.972-2.682 4.624-7.625 7.471-12.972 7.471z" fill="#595959"/><g><path d="m266.523 150.27-9.673-17.562-24.755-42.688c-2.67-4.673-7.641-7.558-13.023-7.558h-34.426v90.25h68.854c5.347 0 10.29-2.847 12.974-7.471 2.683-4.625 2.703-10.329.049-14.971z" fill="#414952"/></g><path d="m428.143 291.819h-68.857c-8.284 0-15-6.716-15-15s6.716-15 15-15h68.857c8.284 0 15 6.716 15 15s-6.716 15-15 15z" fill="#23272b"/><path d="m359.286 360.677c7.846 0 15.363-6.899 15-15-.364-8.127-6.591-15-15-15-7.846 0-15.363 6.899-15 15 .364 8.127 6.59 15 15 15z" fill="#9fe066"/><path d="m428.143 360.677c7.846 0 15.363-6.899 15-15-.364-8.127-6.591-15-15-15-7.846 0-15.363 6.899-15 15 .364 8.127 6.591 15 15 15z" fill="#9fe066"/><path d="m436.75 172.712h-60.25c-8.284 0-15-6.716-15-15v-60.25c0-8.284 6.716-15 15-15h60.25c8.284 0 15 6.716 15 15v60.25c0 8.284-6.716 15-15 15z" fill="#414952"/><path d="m497 132.708h-482c-8.28 0-15 6.72-15 15v45.25h512v-45.25c0-8.28-6.72-15-15-15z" fill="#414952"/><path d="m256.85 217.628c-19.99-15.46-45.04-24.67-72.21-24.67-65.22 0-118.28 53.07-118.28 118.29s53.06 118.29 118.28 118.29c27.17 0 52.22-9.21 72.21-24.67 28.01-21.64 46.08-55.56 46.08-93.62s-18.07-71.98-46.08-93.62z" fill="#595959"/><path d="m256.85 217.628c-19.989-15.459-45.037-24.669-72.205-24.67v236.58c27.168-.001 52.216-9.211 72.205-24.67 28.01-21.64 46.08-55.56 46.08-93.62s-18.07-71.98-46.08-93.62z" fill="#414952"/><path d="m256.85 260.508c-15.99-22.7-42.4-37.55-72.21-37.55-48.68 0-88.28 39.61-88.28 88.29s39.6 88.29 88.28 88.29c29.81 0 56.22-14.85 72.21-37.55 10.13-14.36 16.08-31.87 16.08-50.74s-5.95-36.38-16.08-50.74z" fill="#414952"/><g><path d="m256.85 260.508c-15.989-22.699-42.397-37.548-72.205-37.55v176.58c29.808-.002 56.216-14.851 72.205-37.55 10.13-14.36 16.08-31.87 16.08-50.74s-5.95-36.38-16.08-50.74z" fill="#23272b"/></g><path d="m184.643 360.677c-27.255 0-49.429-22.174-49.429-49.429s22.174-49.429 49.429-49.429 49.428 22.174 49.428 49.429-22.173 49.429-49.428 49.429z" fill="#f5f5fc"/><g><path d="m234.071 311.248c0-27.254-22.172-49.427-49.426-49.429v98.857c27.254 0 49.426-22.174 49.426-49.428z" fill="#dedef4"/></g><path d="m512 147.708c0-8.28-6.72-15-15-15h-312.355v60.25h327.355z" fill="#23272b"/></g></g></svg>